<svg width="49" height="29" viewBox="0 0 49 29" fill="none" xmlns="http://www.w3.org/2000/svg">
<path d="M48.762 14.5C48.762 22.4564 42.2927 29 34.262 29C26.3056 29 19.762 22.4564 19.762 14.5C19.762 6.54359 26.2312 0 34.1876 0C42.2927 0 48.762 6.54359 48.762 14.5Z" fill="#808080"/>
<path d="M29.3542 14.5744C29.3542 13.5333 29.2055 12.4923 29.0568 11.5256H20.1337C20.2081 11.0051 20.3568 10.559 20.5055 9.9641H28.4619C28.3132 9.44359 28.0901 8.92308 27.8671 8.40256H21.1004C21.3235 7.88205 21.6209 7.4359 21.9183 6.84103H27.0491C26.7517 6.32051 26.3799 5.8 25.9337 5.27949H23.1081C23.5542 4.75897 24.0004 4.31282 24.5953 3.79231C22.0671 1.41282 18.6465 0 14.8542 0C6.97218 0.223077 0.428589 6.54359 0.428589 14.5C0.428589 22.4564 6.89782 29 14.9286 29C18.7209 29 22.0671 27.5128 24.6696 25.2077C25.1901 24.7615 25.6363 24.241 26.1568 23.6462H23.1824C22.8106 23.2 22.4388 22.6795 22.1414 22.159H27.1978C27.4953 21.7128 27.7927 21.1923 28.0158 20.5974H21.2491C21.026 20.1513 20.8029 19.6308 20.6542 19.0359H28.6106C29.0568 17.6974 29.3542 16.2103 29.3542 14.5744Z" fill="#686868"/>
<path d="M20.0617 18.2178L20.2848 16.8794C20.2104 16.8794 20.0617 16.9537 19.913 16.9537C19.3925 16.9537 19.3181 16.6563 19.3925 16.5076L19.8386 13.8307H20.6566L20.8797 12.3435H20.1361L20.2848 11.4512H18.7232C18.7232 11.4512 17.8309 16.5076 17.8309 17.1025C17.8309 17.9948 18.3514 18.4409 19.095 18.4409C19.5412 18.4409 19.913 18.2922 20.0617 18.2178Z" fill="white"/>
<path d="M20.5819 15.7641C20.5819 17.9205 22.0691 18.4411 23.2588 18.4411C24.3742 18.4411 24.8947 18.218 24.8947 18.218L25.1922 16.7308C25.1922 16.7308 24.3742 17.1026 23.5563 17.1026C21.846 17.1026 22.1434 15.8385 22.1434 15.8385H25.2665C25.2665 15.8385 25.4896 14.8718 25.4896 14.4257C25.4896 13.459 24.9691 12.1949 23.2588 12.1949C21.7717 12.1205 20.5819 13.8308 20.5819 15.7641ZM23.2588 13.5334C24.0768 13.5334 23.9281 14.5 23.9281 14.5744H22.2178C22.2922 14.5 22.4409 13.5334 23.2588 13.5334Z" fill="white"/>
<path d="M32.9981 18.218L33.2955 16.5078C33.2955 16.5078 32.552 16.8796 31.9571 16.8796C30.9161 16.8796 30.3955 16.0616 30.3955 15.095C30.3955 13.236 31.2878 12.2693 32.4032 12.2693C33.1468 12.2693 33.8161 12.7155 33.8161 12.7155L34.0391 11.0796C34.0391 11.0796 33.1468 10.7078 32.2545 10.7078C30.4699 10.7078 28.7596 12.2693 28.7596 15.1693C28.7596 17.1027 29.652 18.3668 31.5109 18.3668C32.1802 18.4411 32.9981 18.218 32.9981 18.218Z" fill="white"/>
<path d="M11.6577 12.1201C10.6167 12.1201 9.79872 12.4176 9.79872 12.4176L9.57564 13.756C9.57564 13.756 10.2449 13.4586 11.2859 13.4586C11.8064 13.4586 12.2526 13.5329 12.2526 13.9791C12.2526 14.2765 12.1782 14.3509 12.1782 14.3509H11.509C10.1705 14.3509 8.75769 14.8714 8.75769 16.656C8.75769 18.0688 9.65 18.3663 10.2449 18.3663C11.2859 18.3663 11.8064 17.697 11.8808 17.697L11.8064 18.2919H13.0705L13.6654 14.0535C13.6654 12.1945 12.1782 12.1201 11.6577 12.1201ZM11.9551 15.5406C11.9551 15.7637 11.8064 17.0278 10.9141 17.0278C10.4679 17.0278 10.3192 16.656 10.3192 16.4329C10.3192 16.0611 10.5423 15.5406 11.732 15.5406C11.8808 15.5406 11.9551 15.5406 11.9551 15.5406Z" fill="white"/>
<path d="M15.1528 18.3664C15.5246 18.3664 17.4579 18.4408 17.4579 16.3587C17.4579 14.4254 15.599 14.7972 15.599 14.0536C15.599 13.6818 15.8964 13.5331 16.4169 13.5331C16.64 13.5331 17.4579 13.6074 17.4579 13.6074L17.681 12.1946C17.681 12.1946 17.1605 12.0459 16.1938 12.0459C15.0784 12.0459 13.8887 12.4921 13.8887 14.0536C13.8887 15.8382 15.822 15.6895 15.822 16.3587C15.822 16.8049 15.3015 16.8792 14.9297 16.8792C14.2605 16.8792 13.5169 16.6562 13.5169 16.6562L13.2938 18.069C13.4425 18.2177 13.8887 18.3664 15.1528 18.3664Z" fill="white"/>
<path d="M45.7855 10.9307L45.4881 13.0127C45.4881 13.0127 44.8932 12.2691 44.0009 12.2691C42.5881 12.2691 41.3983 13.9794 41.3983 15.9871C41.3983 17.2512 41.9932 18.5153 43.3317 18.5153C44.224 18.5153 44.8188 17.9204 44.8188 17.9204L44.7445 18.4409H46.306L47.4214 11.0794L45.7855 10.9307ZM45.0419 14.946C45.0419 15.764 44.6701 16.8794 43.7778 16.8794C43.2573 16.8794 42.9599 16.4332 42.9599 15.6153C42.9599 14.3512 43.4804 13.6076 44.224 13.6076C44.7445 13.6819 45.0419 14.0537 45.0419 14.946Z" fill="white"/>
<path d="M3.25366 18.2922L4.14597 12.7896L4.29468 18.2922H5.33571L7.3434 12.7896L6.52545 18.2922H8.16135L9.42545 10.9307H6.89725L5.33571 15.4666L5.26135 10.9307H3.03058L1.76648 18.2922H3.25366Z" fill="white"/>
<path d="M27.05 18.2925C27.4961 15.7643 27.5705 13.6823 28.6859 14.0541C28.8346 13.0874 29.0577 12.6412 29.2064 12.2694H28.909C28.2397 12.2694 27.6448 13.1617 27.6448 13.1617L27.7936 12.3438H26.3064L25.3397 18.2925H27.05Z" fill="white"/>
<path d="M36.5688 12.1201C35.5278 12.1201 34.7098 12.4176 34.7098 12.4176L34.4868 13.756C34.4868 13.756 35.156 13.4586 36.197 13.4586C36.7175 13.4586 37.1637 13.5329 37.1637 13.9791C37.1637 14.2765 37.0893 14.3509 37.0893 14.3509H36.4201C35.0816 14.3509 33.6688 14.8714 33.6688 16.656C33.6688 18.0688 34.5611 18.3663 35.156 18.3663C36.197 18.3663 36.7175 17.697 36.7919 17.697L36.7175 18.2919H38.1304L38.7252 14.0535C38.7252 12.1945 37.0893 12.1201 36.5688 12.1201ZM36.9406 15.5406C36.9406 15.7637 36.7919 17.0278 35.8996 17.0278C35.4534 17.0278 35.3047 16.656 35.3047 16.4329C35.3047 16.0611 35.5278 15.5406 36.7175 15.5406C36.8663 15.5406 36.8663 15.5406 36.9406 15.5406Z" fill="white"/>
<path d="M39.9155 18.2925C40.3616 15.7643 40.436 13.6823 41.5514 14.0541C41.7001 13.0874 41.9231 12.6412 42.0719 12.2694H41.7744C41.1052 12.2694 40.5103 13.1617 40.5103 13.1617L40.659 12.3438H39.1719L38.2052 18.2925H39.9155Z" fill="white"/>
</svg>
