<svg width="217" height="57" viewBox="0 0 217 57" fill="none" xmlns="http://www.w3.org/2000/svg">
<path d="M48.0305 56.3837H8.35314C3.72259 56.3837 0 52.6611 0 48.0305V8.35315C0 3.72261 3.72259 0 8.35314 0H48.0305C52.6611 0 56.3837 3.72261 56.3837 8.35315V48.0305C56.3837 52.6611 52.5703 56.3837 48.0305 56.3837Z" fill="white"/>
<path d="M27.7833 18.2499C27.7833 18.2499 33.3218 14.8905 36.6812 12.9838C40.0406 11.0771 41.9473 10.4415 43.854 10.2599C45.7607 10.1691 47.9398 11.1679 47.9398 11.1679L41.8565 7.35449C41.8565 7.35449 41.0394 6.80972 38.7695 7.0821C36.4996 7.35449 35.3193 7.99006 33.8666 8.71642C32.4139 9.53357 22.6988 15.2537 22.6988 15.2537L27.7833 18.2499Z" fill="#231815"/>
<path d="M42.3104 15.7076C42.3104 15.7076 45.125 19.6118 42.9459 26.5122C40.7669 33.4126 35.6823 37.3168 35.3192 37.5892C35.0468 37.8615 31.869 39.6774 31.869 39.6774L31.9597 45.1251C31.9597 45.1251 42.1288 41.5841 46.3962 31.7783C50.2095 23.1527 47.7581 18.5222 45.8514 16.5247C44.7618 15.3444 42.3104 15.7076 42.3104 15.7076Z" fill="#231815"/>
<path d="M27.7833 45.0344L22.6988 42.0381V15.3444L27.7833 18.2499V45.0344Z" fill="#231815"/>
<path d="M12.2573 37.226L7.17279 34.139V7.53606L12.1665 10.3507L12.2573 37.226Z" fill="#231815"/>
<path d="M7.1728 34.139C7.1728 34.139 5.90167 45.3976 15.072 49.4834C20.3381 51.8441 24.2423 50.4821 26.0582 48.6662C27.5109 47.2135 27.6925 45.0344 27.6925 45.0344L22.6079 41.9474C22.6079 41.9474 22.6079 43.037 21.7908 43.8541C20.8828 44.8529 19.4301 45.8516 16.1615 44.2173C11.9849 42.0382 12.1665 37.2261 12.1665 37.2261L7.1728 34.139Z" fill="#231815"/>
<path d="M12.1666 10.3507L16.2524 8.26242L11.6218 5.72016L7.17288 7.53606L12.1666 10.3507Z" fill="#231815"/>
<path d="M211.916 43.4908H213.913V43.9447H213.096V46.033H212.642V43.9447H211.825L211.916 43.4908Z" fill="white"/>
<path d="M214.276 43.4907H214.821L215.638 45.1251L216.455 43.4907H217V46.033H216.546V44.2171L215.729 45.7606H215.457L214.639 44.2171V46.033H214.276V43.4907Z" fill="white"/>
<path d="M209.192 43.6723C209.192 44.5803 209.192 45.3066 209.192 46.2146C205.469 46.2146 201.747 46.2146 198.115 46.2146C195.391 46.2146 195.391 46.2146 195.391 48.8477C195.391 52.7518 195.391 52.7518 199.204 52.7518C201.202 52.7518 203.199 52.661 205.106 52.7518C206.559 52.8426 207.013 52.2978 206.831 50.9359C206.74 50.1188 206.831 49.2108 206.831 48.2121C207.739 48.2121 208.556 48.2121 209.646 48.2121C209.646 49.7556 209.737 51.2083 209.646 52.7518C209.555 54.2953 208.556 55.2033 207.103 55.2941C203.108 55.3849 199.204 55.3849 195.209 55.2941C193.393 55.2941 192.485 54.1137 192.485 52.2978C192.485 50.4819 192.485 48.5753 192.485 46.7594C192.485 44.7619 193.393 43.7631 195.3 43.6723C199.931 43.5815 204.47 43.6723 209.192 43.6723Z" fill="white"/>
<path d="M68.4597 24.4238H71.2743V33.1401C71.2743 33.3217 71.4559 33.5033 71.6375 33.5033H82.6237C82.8053 33.5033 82.9869 33.3217 82.9869 33.1401V24.4238H85.8923C85.8923 27.6017 85.9831 30.6887 85.8923 33.7757C85.8923 35.2284 84.8936 36.1364 83.5316 36.1364C79.1735 36.2272 75.2693 36.2272 70.8203 36.1364C69.3676 36.1364 68.4597 35.1376 68.4597 33.5941C68.3689 30.5979 68.4597 27.5109 68.4597 24.4238Z" fill="white"/>
<path d="M131.835 43.6723H134.649V52.207C134.649 52.3886 134.831 52.5702 135.012 52.5702H147.724V55.2033C147.724 55.2033 135.194 55.2033 135.103 55.2033C132.561 55.2033 131.744 54.2045 131.744 51.9347C131.835 49.4832 131.835 46.3962 131.835 43.6723Z" fill="white"/>
<path d="M168.425 43.7632C169.333 43.7632 170.059 43.7632 171.058 43.7632C171.058 47.5766 171.058 51.39 171.058 55.2941C170.241 55.2941 169.424 55.2941 168.425 55.2941C168.425 51.39 168.425 47.6674 168.425 43.7632Z" fill="white"/>
<path d="M125.751 30.0531C125.751 30.0531 126.205 29.3268 126.205 28.9636C126.75 26.7845 125.933 24.5146 123.754 24.4238C118.851 24.2422 113.948 24.333 108.863 24.333C108.863 28.2372 108.863 32.0506 108.863 36.0456C113.494 36.0456 118.034 36.0456 122.573 36.0456C126.114 36.0456 126.659 33.4125 126.114 30.9611C126.114 30.6887 125.751 30.0531 125.751 30.0531ZM122.755 33.4125L111.95 33.5033V31.3242C111.95 31.3242 120.758 31.3242 122.755 31.3242C122.937 31.3242 123.118 31.5058 123.118 31.6874V33.0494C123.118 33.2309 122.937 33.4125 122.755 33.4125ZM122.755 29.1452L111.95 29.236V27.0569C111.95 27.0569 120.758 27.0569 122.755 27.0569C122.937 27.0569 123.118 27.2385 123.118 27.4201V28.782C123.118 28.9636 122.937 29.1452 122.755 29.1452Z" fill="white"/>
<path d="M141.55 26.6029C140.642 24.787 139.28 24.4238 137.464 24.4238C135.557 24.4238 134.286 24.787 133.378 26.6029C133.378 26.6029 129.928 32.777 127.93 36.1364H131.471L136.374 27.2385C136.465 27.1477 136.556 27.0569 136.738 27.0569H138.372C138.463 27.0569 138.644 27.1477 138.735 27.2385L143.638 36.1364C143.638 36.1364 146.271 36.1364 147.179 36.1364C145 32.777 141.459 26.6029 141.55 26.6029Z" fill="white"/>
<path d="M165.701 24.4239H162.705C162.705 27.3293 162.705 30.2347 162.705 33.5034C162.705 33.5034 162.251 33.5941 161.615 33.0494C160.072 31.5967 156.622 27.4201 156.168 26.9661C156.168 26.9661 156.168 26.8753 156.077 26.8753C155.804 26.5121 155.532 26.2397 155.441 26.149C154.352 25.0594 153.716 24.5146 151.719 24.3331H149.086C149.086 27.8741 149.086 32.5046 149.086 36.0456H152.082C152.082 33.1402 152.082 30.2347 152.082 26.9661C152.082 26.9661 152.536 26.8753 153.171 27.4201C154.715 28.8728 158.165 33.0494 158.619 33.5034C158.619 33.5034 158.619 33.5941 158.71 33.5941C158.982 33.9573 159.255 34.2297 159.345 34.3205C160.435 35.41 161.071 35.9548 163.068 36.1364H165.701C165.701 32.5954 165.701 27.9649 165.701 24.4239Z" fill="white"/>
<path d="M85.8014 45.9423C85.8014 44.5803 84.8027 43.7632 83.2592 43.7632C81.6249 43.7632 79.8998 43.7632 78.2655 43.7632C74.906 43.7632 71.5466 43.7632 68.1872 43.7632C68.1872 47.6674 68.1872 51.39 68.1872 55.2941C71.4558 55.2941 74.5429 55.2941 77.6299 55.2941C79.5366 55.2941 81.4433 55.2941 83.2592 55.2941C84.7119 55.2941 85.7106 54.3862 85.8014 53.1151C85.8014 52.5703 85.8014 46.487 85.8014 45.9423ZM82.9868 47.4858V51.5716V52.3887C82.9868 52.5703 82.8052 52.7519 82.6236 52.7519H71.365C71.1835 52.7519 71.0019 52.5703 71.0019 52.3887V46.7594C71.0019 46.5778 71.1835 46.3962 71.365 46.3962H82.8052C82.9868 46.3962 82.9868 46.5778 82.9868 46.7594V47.4858Z" fill="white"/>
<path d="M190.125 43.6723H187.129C187.129 46.5778 187.129 49.4832 187.129 52.7518C187.129 52.7518 186.675 52.8426 186.039 52.2979C184.496 50.8451 181.045 46.6686 180.591 46.2146C180.591 46.2146 180.591 46.2146 180.501 46.1238C180.228 45.7606 179.956 45.4882 179.865 45.3974C178.776 44.3079 178.14 43.7631 176.142 43.5815H173.509C173.509 47.1225 173.509 51.7531 173.509 55.2941H176.506C176.506 52.3887 176.506 49.4832 176.506 46.2146C176.506 46.2146 176.96 46.1238 177.595 46.6686C179.139 48.1213 182.589 52.2979 183.043 52.7518C183.043 52.7518 183.043 52.7518 183.134 52.8426C183.406 53.2058 183.678 53.4782 183.769 53.569C184.859 54.6585 185.494 55.2033 187.492 55.3849H190.125C190.125 51.8439 190.125 47.2133 190.125 43.6723Z" fill="white"/>
<path d="M108.046 43.6723C107.592 46.1238 106.866 49.3016 106.321 51.7531C106.23 52.2978 106.049 52.661 105.595 52.661C105.05 52.661 105.05 52.2978 104.778 51.7531C104.778 51.7531 102.962 46.9409 102.054 44.8526C101.691 44.0355 101.146 43.6723 100.329 43.6723C99.9656 43.6723 99.6024 43.6723 99.33 43.6723H99.2392H99.1484C98.876 43.6723 98.5129 43.6723 98.1497 43.6723C97.3325 43.6723 96.7877 44.0355 96.4246 44.8526C95.5166 46.9409 93.7007 51.7531 93.7007 51.7531C93.5191 52.2978 93.4283 52.661 92.8836 52.661C92.4296 52.661 92.248 52.2978 92.1572 51.7531C91.6124 49.2108 90.9769 46.1238 90.4321 43.6723C89.3426 43.6723 88.4346 43.6723 87.3451 43.6723C88.0714 46.8501 88.7978 49.8464 89.4333 52.7518C89.7057 54.0229 90.0689 55.2941 91.7032 55.2033C92.4296 55.2033 93.4283 55.2033 94.1547 55.2033C95.0626 55.2033 95.5166 54.5677 95.9706 53.2966L98.6036 46.3054C98.876 45.579 98.9668 45.4882 99.1484 45.4882C99.33 45.4882 99.5116 45.579 99.6932 46.3054L102.326 53.2966C102.78 54.5677 103.234 55.2033 104.142 55.2033C104.868 55.2033 105.776 55.2033 106.594 55.2033C108.228 55.2033 108.591 54.0229 108.863 52.7518C109.499 49.8464 110.225 46.7593 110.952 43.6723C110.044 43.6723 109.136 43.6723 108.046 43.6723Z" fill="white"/>
<path d="M128.384 48.4845H115.401C115.128 48.4845 114.947 48.3029 114.947 48.1213V46.7594C114.947 46.5778 115.128 46.3962 115.401 46.3962C117.58 46.3962 126.024 46.3962 128.384 46.3962H129.02C129.02 45.4883 129.02 44.6711 129.02 43.7632C124.026 43.7632 119.123 43.6724 114.129 43.854C112.041 43.9448 111.496 45.8515 111.496 48.2121C111.496 48.5753 111.496 50.1188 111.496 50.482C111.496 52.9335 111.678 55.4757 115.219 55.4757C119.759 55.4757 124.298 55.4757 128.929 55.4757C128.929 54.5678 128.929 53.6598 128.929 52.8427H115.31C115.037 52.8427 114.856 52.6611 114.856 52.4795V50.936C114.856 50.7544 115.037 50.5728 115.31 50.5728C117.761 50.5728 128.929 50.5728 128.929 50.5728C128.929 49.8464 128.929 49.1201 128.929 48.4845H128.384Z" fill="white"/>
<path d="M149.812 43.6723H152.627V52.207C152.627 52.3886 152.808 52.5702 152.99 52.5702H165.701V55.2033C165.701 55.2033 153.171 55.2033 153.081 55.2033C150.538 55.2033 149.721 54.2045 149.721 51.9347C149.812 49.4832 149.812 46.3962 149.812 43.6723Z" fill="white"/>
<path d="M101.327 31.5966H102.689C105.141 31.5058 105.413 30.2347 105.413 28.0556C105.413 26.0581 104.868 24.6054 102.599 24.5146H90.7044H87.9806V36.2272H90.7044V31.6874H97.3325L102.235 36.2272H106.049C106.049 36.1364 101.327 31.5966 101.327 31.5966ZM90.7952 29.1451V26.9661C91.5216 26.9661 99.7839 26.9661 101.691 26.9661C101.872 26.9661 102.054 27.1477 102.054 27.3292V28.6912C102.054 28.8728 101.872 29.0543 101.691 29.0543L90.7952 29.1451Z" fill="white"/>
</svg>
