<svg width="45" height="14" viewBox="0 0 45 14" fill="none" xmlns="http://www.w3.org/2000/svg">
<g clip-path="url(#clip0_371_417)">
<path d="M44.9985 13.7257V13.8069H41.6259C41.4793 13.1233 41.3357 12.4538 41.1914 11.7803H36.5073C36.2532 12.4546 35.9988 13.1301 35.7463 13.7996H31.9282C31.9482 13.7479 31.9628 13.7062 31.9806 13.6656C33.4046 10.3945 34.8286 7.12334 36.2532 3.85251C36.6255 2.99757 36.9973 2.1421 37.3741 1.28879C37.5224 0.953099 37.747 0.674799 38.0822 0.490439C38.4131 0.308516 38.7767 0.249228 39.1505 0.247062C40.0884 0.242189 41.0267 0.244626 41.9647 0.244896C41.9962 0.244896 42.0278 0.250852 42.0612 0.254101C42.3753 1.7011 42.6877 3.14214 43.0004 4.58318C43.3246 6.07728 43.6491 7.57138 43.973 9.06576C44.2682 10.4277 44.5626 11.79 44.8589 13.1517C44.9008 13.3439 44.9515 13.5343 44.9982 13.7254L44.9985 13.7257ZM37.5638 8.99889H40.5888C40.2263 7.30879 39.8661 5.62762 39.5006 3.92344C38.8519 5.62301 38.2116 7.30148 37.5638 8.99889Z" fill="white"/>
<path d="M30.0298 0C30.1617 0.0170553 30.2932 0.03763 30.4257 0.0506246C31.1889 0.12426 31.9294 0.290753 32.6473 0.550644C32.6647 0.556871 32.6808 0.566346 32.7162 0.583401C32.5527 1.54933 32.3887 2.52094 32.2238 3.49607C31.9629 3.39374 31.7147 3.28897 31.4611 3.19855C30.5484 2.87288 29.6048 2.77704 28.6406 2.87477C28.232 2.91619 27.8417 3.02611 27.5068 3.27219C27.3115 3.41594 27.1688 3.59516 27.1046 3.82689C27.0233 4.12171 27.1162 4.37943 27.3303 4.58247C27.5189 4.76115 27.7266 4.93143 27.9537 5.06002C28.4169 5.32262 28.8956 5.56004 29.3732 5.798C30.0551 6.13776 30.6987 6.52705 31.2317 7.06741C31.7358 7.57853 32.0687 8.1752 32.1599 8.87825C32.2606 9.65522 32.139 10.4065 31.8056 11.1214C31.3544 12.0887 30.5906 12.7625 29.6231 13.2382C28.9375 13.5752 28.2084 13.7845 27.4482 13.8877C27.0638 13.9399 26.6752 13.9635 26.2885 14C26.0248 14 25.7611 14.0003 25.4974 14.0005C24.4454 13.9564 23.4095 13.8148 22.4026 13.5097C22.1943 13.4466 21.9908 13.3684 21.7809 13.2956C21.9528 12.2712 22.1217 11.2641 22.2922 10.2476C22.5371 10.3534 22.7662 10.4541 22.9966 10.5518C23.6332 10.8212 24.2881 11.0345 24.9821 11.1122C25.6443 11.1864 26.3079 11.2354 26.9693 11.1014C27.274 11.0397 27.5645 10.9401 27.8231 10.7703C28.1974 10.525 28.4132 10.1977 28.373 9.74483C28.3539 9.52988 28.2565 9.34876 28.1135 9.18742C27.9008 8.94729 27.6379 8.76455 27.3548 8.61349C26.913 8.37796 26.461 8.16031 26.0161 7.92992C25.3364 7.57772 24.6965 7.17326 24.1724 6.61774C23.4905 5.89492 23.208 5.0519 23.322 4.07948C23.4635 2.87315 24.0782 1.93862 25.0753 1.22338C25.8511 0.666783 26.7329 0.339483 27.6773 0.166493C28.026 0.102603 28.3817 0.0728236 28.7341 0.0262598C28.7541 0.0235526 28.7723 0.00947519 28.7915 0.000812159C29.2043 0.000812159 29.6169 0 30.0298 0Z" fill="white"/>
<path d="M0 0.459904C0.0219512 0.392224 0.043621 0.324544 0.0697936 0.244141C0.115103 0.244141 0.166041 0.244141 0.216698 0.244141C2.08818 0.244141 3.95966 0.244141 5.83086 0.244141C6.10919 0.244141 6.38358 0.273649 6.64812 0.357572C7.16341 0.520816 7.45947 0.877895 7.56923 1.37683C7.70882 2.01086 7.83349 2.64786 7.96379 3.28378C8.14672 4.1758 8.32852 5.0681 8.51145 5.96012C8.60826 6.43252 8.70647 6.90493 8.803 7.37733C8.81116 7.41686 8.80976 7.45801 8.81285 7.49835C8.79456 7.46234 8.77345 7.42742 8.75826 7.39006C8.49006 6.73004 8.14925 6.10603 7.74287 5.51559C6.86989 4.247 5.75629 3.21177 4.44034 2.3747C4.24615 2.25126 4.04099 2.14378 3.8409 2.029C3.61829 1.90663 3.39991 1.77587 3.17223 1.66298C2.19962 1.18056 1.17861 0.820503 0.122702 0.550595C0.0835835 0.540579 0.0410882 0.544098 0 0.54112C0 0.514048 0 0.486976 0 0.459904Z" fill="#808080"/>
<path d="M3.84086 2.0291C4.04095 2.14388 4.24611 2.25136 4.44029 2.37481C5.75652 3.21187 6.87013 4.2471 7.74283 5.5157C8.14921 6.10641 8.49001 6.73015 8.75821 7.39016C8.77341 7.42752 8.79452 7.46244 8.81281 7.49845C8.92425 8.0139 9.0357 8.52962 9.14714 9.04507C9.17669 9.18151 9.2054 9.31823 9.2417 9.48905C10.4378 6.39093 11.6226 3.32287 12.8088 0.250198H16.6612C16.5917 0.416962 16.525 0.579394 16.4566 0.741013C14.6386 5.03842 12.8209 9.33609 11.0017 13.6332C10.9221 13.8211 10.9691 13.7892 10.7642 13.7894C9.5918 13.7908 8.41909 13.79 7.24667 13.79H7.08204C7.01028 13.5339 6.93908 13.2832 6.86984 13.0322C5.93551 9.64309 5.00146 6.25422 4.06769 2.86508C3.99086 2.58651 3.91628 2.30767 3.84058 2.02883L3.84086 2.0291Z" fill="white"/>
<path d="M19.5027 13.8004H15.8574C16.6173 9.28127 17.3757 4.76999 18.1353 0.251953H21.7806C21.0213 4.7681 20.2623 9.28208 19.5027 13.8004Z" fill="white"/>
</g>
<defs>
<clipPath id="clip0_371_417">
<rect width="45" height="14" fill="white"/>
</clipPath>
</defs>
</svg>
