<svg xmlns="http://www.w3.org/2000/svg">
  <symbol id="icon-logo" viewBox="0 0 217 57" fill="none" xmlns="http://www.w3.org/2000/svg">
    <path
      d="M48.0305 56.3837H8.35314C3.72259 56.3837 0 52.6611 0 48.0305V8.35315C0 3.72261 3.72259 0 8.35314 0H48.0305C52.6611 0 56.3837 3.72261 56.3837 8.35315V48.0305C56.3837 52.6611 52.5703 56.3837 48.0305 56.3837Z"
      fill="currentColor" />
    <path
      d="M27.7833 18.2499C27.7833 18.2499 33.3217 14.8905 36.6812 12.9838C40.0406 11.0771 41.9473 10.4415 43.854 10.26C45.7607 10.1692 47.9397 11.1679 47.9397 11.1679L41.8565 7.35451C41.8565 7.35451 41.0393 6.80974 38.7694 7.08213C36.4996 7.35451 35.3192 7.99008 33.8665 8.71644C32.4138 9.53359 22.6987 15.2537 22.6987 15.2537L27.7833 18.2499Z"
      fill="white" />
    <path
      d="M42.3103 15.7075C42.3103 15.7075 45.125 19.6117 42.9459 26.5121C40.7668 33.4125 35.6823 37.3167 35.3191 37.5891C35.0467 37.8615 31.8689 39.6774 31.8689 39.6774L31.9597 45.1251C31.9597 45.1251 42.1287 41.5841 46.3961 31.7782C50.2095 23.1527 47.758 18.5221 45.8513 16.5247C44.7618 15.3443 42.3103 15.7075 42.3103 15.7075Z"
      fill="white" />
    <path d="M27.7833 45.0343L22.6987 42.0381V15.3444L27.7833 18.2498V45.0343Z" fill="white" />
    <path d="M12.2571 37.226L7.17261 34.1389V7.53601L12.1663 10.3507L12.2571 37.226Z" fill="white" />
    <path
      d="M7.17268 34.139C7.17268 34.139 5.90155 45.3976 15.0718 49.4834C20.338 51.8441 24.2421 50.4821 26.058 48.6662C27.5107 47.2135 27.6923 45.0344 27.6923 45.0344L22.6078 41.9474C22.6078 41.9474 22.6078 43.037 21.7907 43.8541C20.8827 44.8529 19.43 45.8516 16.1614 44.2173C11.9848 42.0382 12.1664 37.2261 12.1664 37.2261L7.17268 34.139Z"
      fill="white" />
    <path d="M12.1666 10.3506L16.2523 8.26236L11.6218 5.72009L7.17285 7.53599L12.1666 10.3506Z" fill="white" />
    <path d="M211.916 43.4908H213.913V43.9448H213.096V46.0331H212.642V43.9448H211.825L211.916 43.4908Z"
      fill="currentColor" />
    <path
      d="M214.276 43.4908H214.821L215.638 45.1252L216.455 43.4908H217V46.0331H216.546V44.2172L215.729 45.7607H215.456L214.639 44.2172V46.0331H214.276V43.4908Z"
      fill="currentColor" />
    <path
      d="M209.192 43.6724C209.192 44.5804 209.192 45.3067 209.192 46.2147C205.469 46.2147 201.746 46.2147 198.115 46.2147C195.391 46.2147 195.391 46.2147 195.391 48.8478C195.391 52.7519 195.391 52.7519 199.204 52.7519C201.202 52.7519 203.199 52.6611 205.106 52.7519C206.559 52.8427 207.013 52.298 206.831 50.936C206.74 50.1189 206.831 49.2109 206.831 48.2122C207.739 48.2122 208.556 48.2122 209.646 48.2122C209.646 49.7557 209.736 51.2084 209.646 52.7519C209.555 54.2954 208.556 55.2034 207.103 55.2942C203.108 55.385 199.204 55.385 195.209 55.2942C193.393 55.2942 192.485 54.1139 192.485 52.298C192.485 50.4821 192.485 48.5754 192.485 46.7595C192.485 44.762 193.393 43.7632 195.3 43.6724C199.931 43.5816 204.47 43.6724 209.192 43.6724Z"
      fill="currentColor" />
    <path
      d="M68.4595 24.4238H71.2742V33.1401C71.2742 33.3217 71.4558 33.5033 71.6374 33.5033H82.6236C82.8052 33.5033 82.9867 33.3217 82.9867 33.1401V24.4238H85.8922C85.8922 27.6017 85.983 30.6887 85.8922 33.7757C85.8922 35.2284 84.8934 36.1364 83.5315 36.1364C79.1734 36.2272 75.2692 36.2272 70.8202 36.1364C69.3675 36.1364 68.4595 35.1376 68.4595 33.5941C68.3687 30.5979 68.4595 27.5109 68.4595 24.4238Z"
      fill="currentColor" />
    <path
      d="M131.834 43.6724H134.649V52.2071C134.649 52.3887 134.831 52.5703 135.012 52.5703H147.724V55.2033C147.724 55.2033 135.194 55.2033 135.103 55.2033C132.561 55.2033 131.744 54.2046 131.744 51.9347C131.834 49.4832 131.834 46.3962 131.834 43.6724Z"
      fill="currentColor" />
    <path
      d="M168.425 43.7633C169.333 43.7633 170.059 43.7633 171.058 43.7633C171.058 47.5767 171.058 51.3901 171.058 55.2943C170.241 55.2943 169.424 55.2943 168.425 55.2943C168.425 51.3901 168.425 47.6675 168.425 43.7633Z"
      fill="currentColor" />
    <path
      d="M125.751 30.0532C125.751 30.0532 126.205 29.3268 126.205 28.9637C126.75 26.7846 125.933 24.5147 123.754 24.4239C118.851 24.2423 113.948 24.3331 108.863 24.3331C108.863 28.2373 108.863 32.0507 108.863 36.0457C113.494 36.0457 118.034 36.0457 122.573 36.0457C126.114 36.0457 126.659 33.4126 126.114 30.9612C126.114 30.6888 125.751 30.0532 125.751 30.0532ZM122.755 33.4126L111.95 33.5034V31.3243C111.95 31.3243 120.757 31.3243 122.755 31.3243C122.937 31.3243 123.118 31.5059 123.118 31.6875V33.0494C123.118 33.231 122.937 33.4126 122.755 33.4126ZM122.755 29.1453L111.95 29.2361V27.057C111.95 27.057 120.757 27.057 122.755 27.057C122.937 27.057 123.118 27.2386 123.118 27.4202V28.7821C123.118 28.9637 122.937 29.1453 122.755 29.1453Z"
      fill="currentColor" />
    <path
      d="M141.549 26.6029C140.641 24.787 139.28 24.4238 137.464 24.4238C135.557 24.4238 134.286 24.787 133.378 26.6029C133.378 26.6029 129.928 32.777 127.93 36.1364H131.471L136.374 27.2385C136.465 27.1477 136.556 27.0569 136.737 27.0569H138.372C138.462 27.0569 138.644 27.1477 138.735 27.2385L143.638 36.1364C143.638 36.1364 146.271 36.1364 147.179 36.1364C145 32.777 141.459 26.6029 141.549 26.6029Z"
      fill="currentColor" />
    <path
      d="M165.701 24.4239H162.705C162.705 27.3294 162.705 30.2348 162.705 33.5034C162.705 33.5034 162.251 33.5942 161.615 33.0495C160.072 31.5967 156.621 27.4202 156.167 26.9662C156.167 26.9662 156.167 26.8754 156.077 26.8754C155.804 26.5122 155.532 26.2398 155.441 26.149C154.352 25.0595 153.716 24.5147 151.718 24.3331H149.085C149.085 27.8741 149.085 32.5047 149.085 36.0457H152.082C152.082 33.1403 152.082 30.2348 152.082 26.9662C152.082 26.9662 152.536 26.8754 153.171 27.4202C154.715 28.8729 158.165 33.0495 158.619 33.5034C158.619 33.5034 158.619 33.5942 158.71 33.5942C158.982 33.9574 159.254 34.2298 159.345 34.3206C160.435 35.4101 161.07 35.9549 163.068 36.1365H165.701C165.701 32.5955 165.701 27.9649 165.701 24.4239Z"
      fill="currentColor" />
    <path
      d="M85.8012 45.9424C85.8012 44.5805 84.8025 43.7633 83.259 43.7633C81.6247 43.7633 79.8996 43.7633 78.2652 43.7633C74.9058 43.7633 71.5464 43.7633 68.187 43.7633C68.187 47.6675 68.187 51.3901 68.187 55.2943C71.4556 55.2943 74.5427 55.2943 77.6297 55.2943C79.5364 55.2943 81.4431 55.2943 83.259 55.2943C84.7117 55.2943 85.7104 54.3863 85.8012 53.1152C85.8012 52.5704 85.8012 46.4871 85.8012 45.9424ZM82.9866 47.4859V51.5717V52.3888C82.9866 52.5704 82.805 52.752 82.6234 52.752H71.3648C71.1832 52.752 71.0016 52.5704 71.0016 52.3888V46.7595C71.0016 46.5779 71.1832 46.3964 71.3648 46.3964H82.805C82.9866 46.3964 82.9866 46.5779 82.9866 46.7595V47.4859Z"
      fill="currentColor" />
    <path
      d="M190.125 43.6723H187.129C187.129 46.5778 187.129 49.4832 187.129 52.7518C187.129 52.7518 186.675 52.8426 186.039 52.2979C184.495 50.8451 181.045 46.6686 180.591 46.2146C180.591 46.2146 180.591 46.2146 180.5 46.1238C180.228 45.7606 179.956 45.4882 179.865 45.3974C178.775 44.3079 178.14 43.7631 176.142 43.5815H173.509C173.509 47.1225 173.509 51.7531 173.509 55.2941H176.506C176.506 52.3887 176.506 49.4832 176.506 46.2146C176.506 46.2146 176.959 46.1238 177.595 46.6686C179.139 48.1213 182.589 52.2979 183.043 52.7518C183.043 52.7518 183.043 52.7518 183.134 52.8426C183.406 53.2058 183.678 53.4782 183.769 53.569C184.859 54.6585 185.494 55.2033 187.492 55.3849H190.125C190.125 51.8439 190.125 47.2133 190.125 43.6723Z"
      fill="currentColor" />
    <path
      d="M108.046 43.6724C107.592 46.1238 106.866 49.3016 106.321 51.7531C106.23 52.2979 106.049 52.6611 105.595 52.6611C105.05 52.6611 105.05 52.2979 104.778 51.7531C104.778 51.7531 102.962 46.941 102.054 44.8527C101.691 44.0355 101.146 43.6724 100.329 43.6724C99.9655 43.6724 99.6023 43.6724 99.3299 43.6724H99.2391H99.1483C98.8759 43.6724 98.5128 43.6724 98.1496 43.6724C97.3324 43.6724 96.7876 44.0355 96.4245 44.8527C95.5165 46.941 93.7006 51.7531 93.7006 51.7531C93.519 52.2979 93.4282 52.6611 92.8835 52.6611C92.4295 52.6611 92.2479 52.2979 92.1571 51.7531C91.6123 49.2109 90.9768 46.1238 90.432 43.6724C89.3425 43.6724 88.4345 43.6724 87.345 43.6724C88.0713 46.8502 88.7977 49.8464 89.4333 52.7519C89.7056 54.023 90.0688 55.2941 91.7031 55.2033C92.4295 55.2033 93.4282 55.2033 94.1546 55.2033C95.0625 55.2033 95.5165 54.5678 95.9705 53.2966L98.6036 46.3054C98.8759 45.5791 98.9667 45.4883 99.1483 45.4883C99.3299 45.4883 99.5115 45.5791 99.6931 46.3054L102.326 53.2966C102.78 54.5678 103.234 55.2033 104.142 55.2033C104.868 55.2033 105.776 55.2033 106.594 55.2033C108.228 55.2033 108.591 54.023 108.863 52.7519C109.499 49.8464 110.225 46.7594 110.952 43.6724C110.044 43.6724 109.136 43.6724 108.046 43.6724Z"
      fill="currentColor" />
    <path
      d="M128.384 48.4845H115.401C115.128 48.4845 114.947 48.3029 114.947 48.1213V46.7594C114.947 46.5778 115.128 46.3962 115.401 46.3962C117.58 46.3962 126.024 46.3962 128.384 46.3962H129.02C129.02 45.4883 129.02 44.6711 129.02 43.7632C124.026 43.7632 119.123 43.6724 114.129 43.854C112.041 43.9448 111.496 45.8515 111.496 48.2121C111.496 48.5753 111.496 50.1188 111.496 50.482C111.496 52.9335 111.678 55.4757 115.219 55.4757C119.759 55.4757 124.298 55.4757 128.929 55.4757C128.929 54.5678 128.929 53.6598 128.929 52.8427H115.31C115.037 52.8427 114.856 52.6611 114.856 52.4795V50.936C114.856 50.7544 115.037 50.5728 115.31 50.5728C117.761 50.5728 128.929 50.5728 128.929 50.5728C128.929 49.8464 128.929 49.1201 128.929 48.4845H128.384Z"
      fill="currentColor" />
    <path
      d="M149.812 43.6724H152.626V52.2071C152.626 52.3887 152.808 52.5703 152.99 52.5703H165.701V55.2033C165.701 55.2033 153.171 55.2033 153.08 55.2033C150.538 55.2033 149.721 54.2046 149.721 51.9347C149.812 49.4832 149.812 46.3962 149.812 43.6724Z"
      fill="currentColor" />
    <path
      d="M101.327 31.5967H102.689C105.141 31.5059 105.413 30.2347 105.413 28.0557C105.413 26.0582 104.868 24.6054 102.598 24.5146H90.7043H87.9805V36.2272H90.7043V31.6875H97.3324L102.235 36.2272H106.049C106.049 36.1364 101.327 31.5967 101.327 31.5967ZM90.7951 29.1452V26.9661C91.5215 26.9661 99.7838 26.9661 101.691 26.9661C101.872 26.9661 102.054 27.1477 102.054 27.3293V28.6912C102.054 28.8728 101.872 29.0544 101.691 29.0544L90.7951 29.1452Z"
      fill="currentColor" />
  </symbol>
  <symbol id="icon-logo-white" viewBox="0 0 217 57" fill="none" xmlns="http://www.w3.org/2000/svg">
    <path
      d="M48.0305 56.3837H8.35314C3.72259 56.3837 0 52.6611 0 48.0305V8.35315C0 3.72261 3.72259 0 8.35314 0H48.0305C52.6611 0 56.3837 3.72261 56.3837 8.35315V48.0305C56.3837 52.6611 52.5703 56.3837 48.0305 56.3837Z"
      fill="currentColor" />
    <path
      d="M27.7833 18.2499C27.7833 18.2499 33.3218 14.8905 36.6812 12.9838C40.0406 11.0771 41.9473 10.4415 43.854 10.2599C45.7607 10.1691 47.9398 11.1679 47.9398 11.1679L41.8565 7.35449C41.8565 7.35449 41.0394 6.80972 38.7695 7.0821C36.4996 7.35449 35.3193 7.99006 33.8666 8.71642C32.4139 9.53357 22.6988 15.2537 22.6988 15.2537L27.7833 18.2499Z"
      fill="#231815" />
    <path
      d="M42.3104 15.7076C42.3104 15.7076 45.125 19.6118 42.9459 26.5122C40.7669 33.4126 35.6823 37.3168 35.3192 37.5892C35.0468 37.8615 31.869 39.6774 31.869 39.6774L31.9597 45.1251C31.9597 45.1251 42.1288 41.5841 46.3962 31.7783C50.2095 23.1527 47.7581 18.5222 45.8514 16.5247C44.7618 15.3444 42.3104 15.7076 42.3104 15.7076Z"
      fill="#231815" />
    <path d="M27.7833 45.0344L22.6988 42.0381V15.3444L27.7833 18.2499V45.0344Z" fill="#231815" />
    <path d="M12.2573 37.226L7.17279 34.139V7.53606L12.1665 10.3507L12.2573 37.226Z" fill="#231815" />
    <path
      d="M7.1728 34.139C7.1728 34.139 5.90167 45.3976 15.072 49.4834C20.3381 51.8441 24.2423 50.4821 26.0582 48.6662C27.5109 47.2135 27.6925 45.0344 27.6925 45.0344L22.6079 41.9474C22.6079 41.9474 22.6079 43.037 21.7908 43.8541C20.8828 44.8529 19.4301 45.8516 16.1615 44.2173C11.9849 42.0382 12.1665 37.2261 12.1665 37.2261L7.1728 34.139Z"
      fill="#231815" />
    <path d="M12.1666 10.3507L16.2524 8.26242L11.6218 5.72016L7.17288 7.53606L12.1666 10.3507Z" fill="#231815" />
    <path d="M211.916 43.4908H213.913V43.9447H213.096V46.033H212.642V43.9447H211.825L211.916 43.4908Z" fill="currentColor" />
    <path
      d="M214.276 43.4907H214.821L215.638 45.1251L216.455 43.4907H217V46.033H216.546V44.2171L215.729 45.7606H215.457L214.639 44.2171V46.033H214.276V43.4907Z"
      fill="currentColor" />
    <path
      d="M209.192 43.6723C209.192 44.5803 209.192 45.3066 209.192 46.2146C205.469 46.2146 201.747 46.2146 198.115 46.2146C195.391 46.2146 195.391 46.2146 195.391 48.8477C195.391 52.7518 195.391 52.7518 199.204 52.7518C201.202 52.7518 203.199 52.661 205.106 52.7518C206.559 52.8426 207.013 52.2978 206.831 50.9359C206.74 50.1188 206.831 49.2108 206.831 48.2121C207.739 48.2121 208.556 48.2121 209.646 48.2121C209.646 49.7556 209.737 51.2083 209.646 52.7518C209.555 54.2953 208.556 55.2033 207.103 55.2941C203.108 55.3849 199.204 55.3849 195.209 55.2941C193.393 55.2941 192.485 54.1137 192.485 52.2978C192.485 50.4819 192.485 48.5753 192.485 46.7594C192.485 44.7619 193.393 43.7631 195.3 43.6723C199.931 43.5815 204.47 43.6723 209.192 43.6723Z"
      fill="currentColor" />
    <path
      d="M68.4597 24.4238H71.2743V33.1401C71.2743 33.3217 71.4559 33.5033 71.6375 33.5033H82.6237C82.8053 33.5033 82.9869 33.3217 82.9869 33.1401V24.4238H85.8923C85.8923 27.6017 85.9831 30.6887 85.8923 33.7757C85.8923 35.2284 84.8936 36.1364 83.5316 36.1364C79.1735 36.2272 75.2693 36.2272 70.8203 36.1364C69.3676 36.1364 68.4597 35.1376 68.4597 33.5941C68.3689 30.5979 68.4597 27.5109 68.4597 24.4238Z"
      fill="currentColor" />
    <path
      d="M131.835 43.6723H134.649V52.207C134.649 52.3886 134.831 52.5702 135.012 52.5702H147.724V55.2033C147.724 55.2033 135.194 55.2033 135.103 55.2033C132.561 55.2033 131.744 54.2045 131.744 51.9347C131.835 49.4832 131.835 46.3962 131.835 43.6723Z"
      fill="currentColor" />
    <path
      d="M168.425 43.7632C169.333 43.7632 170.059 43.7632 171.058 43.7632C171.058 47.5766 171.058 51.39 171.058 55.2941C170.241 55.2941 169.424 55.2941 168.425 55.2941C168.425 51.39 168.425 47.6674 168.425 43.7632Z"
      fill="currentColor" />
    <path
      d="M125.751 30.0531C125.751 30.0531 126.205 29.3268 126.205 28.9636C126.75 26.7845 125.933 24.5146 123.754 24.4238C118.851 24.2422 113.948 24.333 108.863 24.333C108.863 28.2372 108.863 32.0506 108.863 36.0456C113.494 36.0456 118.034 36.0456 122.573 36.0456C126.114 36.0456 126.659 33.4125 126.114 30.9611C126.114 30.6887 125.751 30.0531 125.751 30.0531ZM122.755 33.4125L111.95 33.5033V31.3242C111.95 31.3242 120.758 31.3242 122.755 31.3242C122.937 31.3242 123.118 31.5058 123.118 31.6874V33.0494C123.118 33.2309 122.937 33.4125 122.755 33.4125ZM122.755 29.1452L111.95 29.236V27.0569C111.95 27.0569 120.758 27.0569 122.755 27.0569C122.937 27.0569 123.118 27.2385 123.118 27.4201V28.782C123.118 28.9636 122.937 29.1452 122.755 29.1452Z"
      fill="currentColor" />
    <path
      d="M141.55 26.6029C140.642 24.787 139.28 24.4238 137.464 24.4238C135.557 24.4238 134.286 24.787 133.378 26.6029C133.378 26.6029 129.928 32.777 127.93 36.1364H131.471L136.374 27.2385C136.465 27.1477 136.556 27.0569 136.738 27.0569H138.372C138.463 27.0569 138.644 27.1477 138.735 27.2385L143.638 36.1364C143.638 36.1364 146.271 36.1364 147.179 36.1364C145 32.777 141.459 26.6029 141.55 26.6029Z"
      fill="currentColor" />
    <path
      d="M165.701 24.4239H162.705C162.705 27.3293 162.705 30.2347 162.705 33.5034C162.705 33.5034 162.251 33.5941 161.615 33.0494C160.072 31.5967 156.622 27.4201 156.168 26.9661C156.168 26.9661 156.168 26.8753 156.077 26.8753C155.804 26.5121 155.532 26.2397 155.441 26.149C154.352 25.0594 153.716 24.5146 151.719 24.3331H149.086C149.086 27.8741 149.086 32.5046 149.086 36.0456H152.082C152.082 33.1402 152.082 30.2347 152.082 26.9661C152.082 26.9661 152.536 26.8753 153.171 27.4201C154.715 28.8728 158.165 33.0494 158.619 33.5034C158.619 33.5034 158.619 33.5941 158.71 33.5941C158.982 33.9573 159.255 34.2297 159.345 34.3205C160.435 35.41 161.071 35.9548 163.068 36.1364H165.701C165.701 32.5954 165.701 27.9649 165.701 24.4239Z"
      fill="currentColor" />
    <path
      d="M85.8014 45.9423C85.8014 44.5803 84.8027 43.7632 83.2592 43.7632C81.6249 43.7632 79.8998 43.7632 78.2655 43.7632C74.906 43.7632 71.5466 43.7632 68.1872 43.7632C68.1872 47.6674 68.1872 51.39 68.1872 55.2941C71.4558 55.2941 74.5429 55.2941 77.6299 55.2941C79.5366 55.2941 81.4433 55.2941 83.2592 55.2941C84.7119 55.2941 85.7106 54.3862 85.8014 53.1151C85.8014 52.5703 85.8014 46.487 85.8014 45.9423ZM82.9868 47.4858V51.5716V52.3887C82.9868 52.5703 82.8052 52.7519 82.6236 52.7519H71.365C71.1835 52.7519 71.0019 52.5703 71.0019 52.3887V46.7594C71.0019 46.5778 71.1835 46.3962 71.365 46.3962H82.8052C82.9868 46.3962 82.9868 46.5778 82.9868 46.7594V47.4858Z"
      fill="currentColor" />
    <path
      d="M190.125 43.6723H187.129C187.129 46.5778 187.129 49.4832 187.129 52.7518C187.129 52.7518 186.675 52.8426 186.039 52.2979C184.496 50.8451 181.045 46.6686 180.591 46.2146C180.591 46.2146 180.591 46.2146 180.501 46.1238C180.228 45.7606 179.956 45.4882 179.865 45.3974C178.776 44.3079 178.14 43.7631 176.142 43.5815H173.509C173.509 47.1225 173.509 51.7531 173.509 55.2941H176.506C176.506 52.3887 176.506 49.4832 176.506 46.2146C176.506 46.2146 176.96 46.1238 177.595 46.6686C179.139 48.1213 182.589 52.2979 183.043 52.7518C183.043 52.7518 183.043 52.7518 183.134 52.8426C183.406 53.2058 183.678 53.4782 183.769 53.569C184.859 54.6585 185.494 55.2033 187.492 55.3849H190.125C190.125 51.8439 190.125 47.2133 190.125 43.6723Z"
      fill="currentColor" />
    <path
      d="M108.046 43.6723C107.592 46.1238 106.866 49.3016 106.321 51.7531C106.23 52.2978 106.049 52.661 105.595 52.661C105.05 52.661 105.05 52.2978 104.778 51.7531C104.778 51.7531 102.962 46.9409 102.054 44.8526C101.691 44.0355 101.146 43.6723 100.329 43.6723C99.9656 43.6723 99.6024 43.6723 99.33 43.6723H99.2392H99.1484C98.876 43.6723 98.5129 43.6723 98.1497 43.6723C97.3325 43.6723 96.7877 44.0355 96.4246 44.8526C95.5166 46.9409 93.7007 51.7531 93.7007 51.7531C93.5191 52.2978 93.4283 52.661 92.8836 52.661C92.4296 52.661 92.248 52.2978 92.1572 51.7531C91.6124 49.2108 90.9769 46.1238 90.4321 43.6723C89.3426 43.6723 88.4346 43.6723 87.3451 43.6723C88.0714 46.8501 88.7978 49.8464 89.4333 52.7518C89.7057 54.0229 90.0689 55.2941 91.7032 55.2033C92.4296 55.2033 93.4283 55.2033 94.1547 55.2033C95.0626 55.2033 95.5166 54.5677 95.9706 53.2966L98.6036 46.3054C98.876 45.579 98.9668 45.4882 99.1484 45.4882C99.33 45.4882 99.5116 45.579 99.6932 46.3054L102.326 53.2966C102.78 54.5677 103.234 55.2033 104.142 55.2033C104.868 55.2033 105.776 55.2033 106.594 55.2033C108.228 55.2033 108.591 54.0229 108.863 52.7518C109.499 49.8464 110.225 46.7593 110.952 43.6723C110.044 43.6723 109.136 43.6723 108.046 43.6723Z"
      fill="currentColor" />
    <path
      d="M128.384 48.4845H115.401C115.128 48.4845 114.947 48.3029 114.947 48.1213V46.7594C114.947 46.5778 115.128 46.3962 115.401 46.3962C117.58 46.3962 126.024 46.3962 128.384 46.3962H129.02C129.02 45.4883 129.02 44.6711 129.02 43.7632C124.026 43.7632 119.123 43.6724 114.129 43.854C112.041 43.9448 111.496 45.8515 111.496 48.2121C111.496 48.5753 111.496 50.1188 111.496 50.482C111.496 52.9335 111.678 55.4757 115.219 55.4757C119.759 55.4757 124.298 55.4757 128.929 55.4757C128.929 54.5678 128.929 53.6598 128.929 52.8427H115.31C115.037 52.8427 114.856 52.6611 114.856 52.4795V50.936C114.856 50.7544 115.037 50.5728 115.31 50.5728C117.761 50.5728 128.929 50.5728 128.929 50.5728C128.929 49.8464 128.929 49.1201 128.929 48.4845H128.384Z"
      fill="currentColor" />
    <path
      d="M149.812 43.6723H152.627V52.207C152.627 52.3886 152.808 52.5702 152.99 52.5702H165.701V55.2033C165.701 55.2033 153.171 55.2033 153.081 55.2033C150.538 55.2033 149.721 54.2045 149.721 51.9347C149.812 49.4832 149.812 46.3962 149.812 43.6723Z"
      fill="currentColor" />
    <path
      d="M101.327 31.5966H102.689C105.141 31.5058 105.413 30.2347 105.413 28.0556C105.413 26.0581 104.868 24.6054 102.599 24.5146H90.7044H87.9806V36.2272H90.7044V31.6874H97.3325L102.235 36.2272H106.049C106.049 36.1364 101.327 31.5966 101.327 31.5966ZM90.7952 29.1451V26.9661C91.5216 26.9661 99.7839 26.9661 101.691 26.9661C101.872 26.9661 102.054 27.1477 102.054 27.3292V28.6912C102.054 28.8728 101.872 29.0543 101.691 29.0543L90.7952 29.1451Z"
      fill="currentColor" />
  </symbol>
  <symbol id="icon-search" viewBox="0 0 22 23" fill="none" xmlns="http://www.w3.org/2000/svg">
    <path
      d="M10.1931 20.142C5.18518 20.142 1.10791 16.0647 1.10791 11.0568C1.10791 6.04883 5.18518 1.97156 10.1931 1.97156C15.2011 1.97156 19.2784 6.04883 19.2784 11.0568C19.2784 16.0647 15.2011 20.142 10.1931 20.142ZM10.1931 3.3011C5.912 3.3011 2.43746 6.78451 2.43746 11.0568C2.43746 15.3291 5.912 18.8125 10.1931 18.8125C14.4743 18.8125 17.9488 15.3291 17.9488 11.0568C17.9488 6.78451 14.4743 3.3011 10.1931 3.3011Z"
      fill="currentColor" />
    <path
      d="M19.5 21.0284C19.3316 21.0284 19.1632 20.9664 19.0302 20.8334L17.2575 19.0607C17.0004 18.8036 17.0004 18.3782 17.2575 18.1211C17.5145 17.8641 17.94 17.8641 18.197 18.1211L19.9698 19.8939C20.2268 20.1509 20.2268 20.5764 19.9698 20.8334C19.8368 20.9664 19.6684 21.0284 19.5 21.0284Z"
      fill="currentColor" />
  </symbol>
  <symbol id="icon-basket" viewBox="0 0 21 27" fill="none" xmlns="http://www.w3.org/2000/svg">
    <path fill-rule="evenodd" clip-rule="evenodd"
      d="M1.16673 9.9C1.14893 8.59317 2.19325 7.51901 3.50006 7.5H17.5001C18.8069 7.51901 19.8512 8.59317 19.8334 9.9V20.7C19.8697 23.314 17.7807 25.4627 15.1667 25.5H5.83339C3.21945 25.4627 1.13039 23.314 1.16673 20.7V9.9Z"
      stroke="white" stroke-width="1.5" stroke-linecap="round" stroke-linejoin="round" />
    <path d="M15.1667 11.1V6.3C15.203 3.68604 13.114 1.53729 10.5 1.5C7.88608 1.53729 5.79701 3.68604 5.83335 6.3V11.1"
      stroke="white" stroke-width="1.5" stroke-linecap="round" stroke-linejoin="round" />
  </symbol>
  <symbol id="icon-mir" viewBox="0 0 46 13" fill="none" xmlns="http://www.w3.org/2000/svg">
    <path
      d="M16.4204 12.9839H12.3268V5.36281H12.0556C11.2944 7.90375 10.5335 10.4417 9.77137 12.9856H6.66659C5.90653 10.4481 5.14442 7.90417 4.38068 5.35518H4.11888C4.10459 5.98946 4.11439 6.62036 4.11235 7.25125C4.11072 7.8851 4.11235 8.51896 4.11235 9.15282C4.11235 9.78667 4.11235 10.4205 4.11235 11.0544C4.11235 11.6878 4.11235 12.3213 4.11235 12.9492C3.9596 13.0072 0.249543 13.0208 0 12.9661V0.0254462C0.0882181 0.0195143 0.173169 0.00934552 0.258119 0.00892182C1.52421 0.00807442 2.7903 0.00807442 4.05599 0.00807442C4.23242 0.00807442 4.40927 0.0025663 4.5853 0.00892182C5.3911 0.0385809 5.91755 0.488975 6.22836 1.22367C6.36967 1.55713 6.46361 1.91303 6.56203 2.26428C7.04723 3.99426 7.52631 5.72592 8.00824 7.45674C8.02662 7.52326 8.05153 7.58809 8.07563 7.66012H8.3656C8.38929 7.58427 8.41584 7.50674 8.43789 7.42793C8.98109 5.50306 9.52224 3.57733 10.0675 1.65331C10.1876 1.22918 10.3754 0.841918 10.6903 0.530498C11.0036 0.220772 11.3805 0.0563763 11.8069 0.0216329C12.0638 0.000447796 12.3228 0.00934552 12.5809 0.00892182C13.7788 0.00807442 14.9766 0.00849812 16.1745 0.00849812H16.4094C16.4572 0.1873 16.4653 12.7441 16.4204 12.9843V12.9839Z"
      fill="white" />
    <path
      d="M31.1151 12.9845H26.9431V5.36126H26.6111C26.5817 5.42312 26.5466 5.49049 26.5163 5.5604C25.6497 7.55688 24.7814 9.55294 23.9176 11.5507C23.5888 12.3108 23.0411 12.7892 22.2541 12.9688C22.1753 12.9866 22.0928 12.9947 22.0119 12.9947C20.8006 12.9964 19.5892 12.9959 18.3778 12.9951C18.3117 12.9951 18.2455 12.9879 18.165 12.9828V0.0518634C18.3055 -0.00109927 21.9833 -0.0222843 22.3415 0.0306783C22.3472 0.119656 22.3587 0.214141 22.3587 0.30905C22.3595 2.66102 22.3595 5.01298 22.3595 7.36495V7.64671H22.6646C22.6964 7.5823 22.7356 7.50943 22.7691 7.43443C23.6476 5.45109 24.5282 3.46901 25.4014 1.48313C25.6525 0.911553 26.0091 0.453108 26.5699 0.184906C26.8137 0.067964 27.0649 0.00398515 27.3381 0.00567995C28.5155 0.0120355 29.6926 0.00822216 30.8701 0.00822216C30.9505 0.00822216 31.0306 0.00822216 31.1045 0.00822216C31.1551 0.188295 31.1633 12.7472 31.1155 12.9849L31.1151 12.9845Z"
      fill="white" />
    <path
      d="M45.9072 5.36881C45.8222 5.37305 45.7487 5.37941 45.6752 5.37941C43.2055 5.37898 40.7354 5.38449 38.2657 5.37093C37.745 5.36797 37.2189 5.37898 36.7047 5.23916C35.9194 5.02604 35.2259 4.63581 34.6186 4.08542C33.7923 3.33717 33.1952 2.42579 32.853 1.34281C32.7219 0.927579 32.6296 0.503031 32.6055 0.0331462C32.6851 0.0297566 32.7623 0.0238248 32.8395 0.0238248C34.6765 0.0217063 36.5136 0.0204352 38.3507 0.0187404C39.3782 0.017893 40.4054 0.0187404 41.433 0.0166219C42.2294 0.0145034 42.9891 0.178052 43.6915 0.57167C44.9458 1.27417 45.6838 2.36732 45.9391 3.81383C46.024 4.29558 46.0244 4.7786 45.937 5.26077C45.9321 5.28789 45.9223 5.31416 45.9072 5.36839V5.36881Z"
      fill="#808080" />
    <path
      d="M45.6293 6.2031C45.5129 6.56282 45.3443 6.87466 45.136 7.16236C44.4408 8.12119 43.5039 8.69361 42.3918 8.98004C41.9801 9.08596 41.5615 9.12197 41.138 9.12113C39.7771 9.11816 38.4163 9.12028 37.0554 9.12028C36.9754 9.12028 36.8949 9.12028 36.7936 9.12028V12.9484C36.6303 13.0069 33.0395 13.0192 32.7957 12.9666V6.22513C32.8034 6.21538 32.8075 6.20945 32.8124 6.20479C32.8173 6.20013 32.8226 6.19505 32.8287 6.19378C32.8553 6.18827 32.8818 6.17979 32.9084 6.17979C37.1204 6.17979 41.3324 6.17979 45.5444 6.18064C45.5636 6.18064 45.5828 6.19039 45.6302 6.2031H45.6293Z"
      fill="white" />
  </symbol>
  <symbol id="icon-visa" viewBox="0 0 45 14" fill="none" xmlns="http://www.w3.org/2000/svg">
    <path
      d="M44.9985 13.7257V13.8069H41.6259C41.4793 13.1233 41.3357 12.4538 41.1914 11.7803H36.5073C36.2532 12.4546 35.9988 13.1301 35.7463 13.7996H31.9282C31.9482 13.7479 31.9628 13.7062 31.9806 13.6656C33.4046 10.3945 34.8286 7.12334 36.2532 3.85251C36.6255 2.99757 36.9973 2.1421 37.3741 1.28879C37.5224 0.953099 37.747 0.674799 38.0822 0.490439C38.4131 0.308516 38.7767 0.249228 39.1505 0.247062C40.0884 0.242189 41.0267 0.244626 41.9647 0.244896C41.9962 0.244896 42.0278 0.250852 42.0612 0.254101C42.3753 1.7011 42.6877 3.14214 43.0004 4.58318C43.3246 6.07728 43.6491 7.57138 43.973 9.06576C44.2682 10.4277 44.5626 11.79 44.8589 13.1517C44.9008 13.3439 44.9515 13.5343 44.9982 13.7254L44.9985 13.7257ZM37.5638 8.99889H40.5888C40.2263 7.30879 39.8661 5.62762 39.5006 3.92344C38.8519 5.62301 38.2116 7.30148 37.5638 8.99889Z"
      fill="white" />
    <path
      d="M30.0298 0C30.1617 0.0170553 30.2932 0.03763 30.4257 0.0506246C31.1889 0.12426 31.9294 0.290753 32.6473 0.550644C32.6647 0.556871 32.6808 0.566346 32.7162 0.583401C32.5527 1.54933 32.3887 2.52094 32.2238 3.49607C31.9629 3.39374 31.7147 3.28897 31.4611 3.19855C30.5484 2.87288 29.6048 2.77704 28.6406 2.87477C28.232 2.91619 27.8417 3.02611 27.5068 3.27219C27.3115 3.41594 27.1688 3.59516 27.1046 3.82689C27.0233 4.12171 27.1162 4.37943 27.3303 4.58247C27.5189 4.76115 27.7266 4.93143 27.9537 5.06002C28.4169 5.32262 28.8956 5.56004 29.3732 5.798C30.0551 6.13776 30.6987 6.52705 31.2317 7.06741C31.7358 7.57853 32.0687 8.1752 32.1599 8.87825C32.2606 9.65522 32.139 10.4065 31.8056 11.1214C31.3544 12.0887 30.5906 12.7625 29.6231 13.2382C28.9375 13.5752 28.2084 13.7845 27.4482 13.8877C27.0638 13.9399 26.6752 13.9635 26.2885 14C26.0248 14 25.7611 14.0003 25.4974 14.0005C24.4454 13.9564 23.4095 13.8148 22.4026 13.5097C22.1943 13.4466 21.9908 13.3684 21.7809 13.2956C21.9528 12.2712 22.1217 11.2641 22.2922 10.2476C22.5371 10.3534 22.7662 10.4541 22.9966 10.5518C23.6332 10.8212 24.2881 11.0345 24.9821 11.1122C25.6443 11.1864 26.3079 11.2354 26.9693 11.1014C27.274 11.0397 27.5645 10.9401 27.8231 10.7703C28.1974 10.525 28.4132 10.1977 28.373 9.74483C28.3539 9.52988 28.2565 9.34876 28.1135 9.18742C27.9008 8.94729 27.6379 8.76455 27.3548 8.61349C26.913 8.37796 26.461 8.16031 26.0161 7.92992C25.3364 7.57772 24.6965 7.17326 24.1724 6.61774C23.4905 5.89492 23.208 5.0519 23.322 4.07948C23.4635 2.87315 24.0782 1.93862 25.0753 1.22338C25.8511 0.666783 26.7329 0.339483 27.6773 0.166493C28.026 0.102603 28.3817 0.0728236 28.7341 0.0262598C28.7541 0.0235526 28.7723 0.00947519 28.7915 0.000812159C29.2043 0.000812159 29.6169 0 30.0298 0Z"
      fill="white" />
    <path
      d="M0 0.459904C0.0219512 0.392224 0.043621 0.324544 0.0697936 0.244141C0.115103 0.244141 0.166041 0.244141 0.216698 0.244141C2.08818 0.244141 3.95966 0.244141 5.83086 0.244141C6.10919 0.244141 6.38358 0.273649 6.64812 0.357572C7.16341 0.520816 7.45947 0.877895 7.56923 1.37683C7.70882 2.01086 7.83349 2.64786 7.96379 3.28378C8.14672 4.1758 8.32852 5.0681 8.51145 5.96012C8.60826 6.43252 8.70647 6.90493 8.803 7.37733C8.81116 7.41686 8.80976 7.45801 8.81285 7.49835C8.79456 7.46234 8.77345 7.42742 8.75826 7.39006C8.49006 6.73004 8.14925 6.10603 7.74287 5.51559C6.86989 4.247 5.75629 3.21177 4.44034 2.3747C4.24615 2.25126 4.04099 2.14378 3.8409 2.029C3.61829 1.90663 3.39991 1.77587 3.17223 1.66298C2.19962 1.18056 1.17861 0.820503 0.122702 0.550595C0.0835835 0.540579 0.0410882 0.544098 0 0.54112C0 0.514048 0 0.486976 0 0.459904Z"
      fill="#808080" />
    <path
      d="M3.84086 2.0291C4.04095 2.14388 4.24611 2.25136 4.44029 2.37481C5.75652 3.21187 6.87013 4.2471 7.74283 5.5157C8.14921 6.10641 8.49001 6.73015 8.75821 7.39016C8.77341 7.42752 8.79452 7.46244 8.81281 7.49845C8.92425 8.0139 9.0357 8.52962 9.14714 9.04507C9.17669 9.18151 9.2054 9.31823 9.2417 9.48905C10.4378 6.39093 11.6226 3.32287 12.8088 0.250198H16.6612C16.5917 0.416962 16.525 0.579394 16.4566 0.741013C14.6386 5.03842 12.8209 9.33609 11.0017 13.6332C10.9221 13.8211 10.9691 13.7892 10.7642 13.7894C9.5918 13.7908 8.41909 13.79 7.24667 13.79H7.08204C7.01028 13.5339 6.93908 13.2832 6.86984 13.0322C5.93551 9.64309 5.00146 6.25422 4.06769 2.86508C3.99086 2.58651 3.91628 2.30767 3.84058 2.02883L3.84086 2.0291Z"
      fill="white" />
    <path
      d="M19.5027 13.8004H15.8574C16.6173 9.28127 17.3757 4.76999 18.1353 0.251953H21.7806C21.0213 4.7681 20.2623 9.28208 19.5027 13.8004Z"
      fill="white" />
  </symbol>
  <symbol id="icon-mc" viewBox="0 0 49 29" fill="none" xmlns="http://www.w3.org/2000/svg">
    <path
      d="M48.762 14.5C48.762 22.4564 42.2927 29 34.262 29C26.3056 29 19.762 22.4564 19.762 14.5C19.762 6.54359 26.2312 0 34.1876 0C42.2927 0 48.762 6.54359 48.762 14.5Z"
      fill="#808080" />
    <path
      d="M29.3542 14.5744C29.3542 13.5333 29.2055 12.4923 29.0568 11.5256H20.1337C20.2081 11.0051 20.3568 10.559 20.5055 9.9641H28.4619C28.3132 9.44359 28.0901 8.92308 27.8671 8.40256H21.1004C21.3235 7.88205 21.6209 7.4359 21.9183 6.84103H27.0491C26.7517 6.32051 26.3799 5.8 25.9337 5.27949H23.1081C23.5542 4.75897 24.0004 4.31282 24.5953 3.79231C22.0671 1.41282 18.6465 0 14.8542 0C6.97218 0.223077 0.428589 6.54359 0.428589 14.5C0.428589 22.4564 6.89782 29 14.9286 29C18.7209 29 22.0671 27.5128 24.6696 25.2077C25.1901 24.7615 25.6363 24.241 26.1568 23.6462H23.1824C22.8106 23.2 22.4388 22.6795 22.1414 22.159H27.1978C27.4953 21.7128 27.7927 21.1923 28.0158 20.5974H21.2491C21.026 20.1513 20.8029 19.6308 20.6542 19.0359H28.6106C29.0568 17.6974 29.3542 16.2103 29.3542 14.5744Z"
      fill="#686868" />
    <path
      d="M20.0617 18.2178L20.2848 16.8794C20.2104 16.8794 20.0617 16.9537 19.913 16.9537C19.3925 16.9537 19.3181 16.6563 19.3925 16.5076L19.8386 13.8307H20.6566L20.8797 12.3435H20.1361L20.2848 11.4512H18.7232C18.7232 11.4512 17.8309 16.5076 17.8309 17.1025C17.8309 17.9948 18.3514 18.4409 19.095 18.4409C19.5412 18.4409 19.913 18.2922 20.0617 18.2178Z"
      fill="white" />
    <path
      d="M20.5819 15.7641C20.5819 17.9205 22.0691 18.4411 23.2588 18.4411C24.3742 18.4411 24.8947 18.218 24.8947 18.218L25.1922 16.7308C25.1922 16.7308 24.3742 17.1026 23.5563 17.1026C21.846 17.1026 22.1434 15.8385 22.1434 15.8385H25.2665C25.2665 15.8385 25.4896 14.8718 25.4896 14.4257C25.4896 13.459 24.9691 12.1949 23.2588 12.1949C21.7717 12.1205 20.5819 13.8308 20.5819 15.7641ZM23.2588 13.5334C24.0768 13.5334 23.9281 14.5 23.9281 14.5744H22.2178C22.2922 14.5 22.4409 13.5334 23.2588 13.5334Z"
      fill="white" />
    <path
      d="M32.9981 18.218L33.2955 16.5078C33.2955 16.5078 32.552 16.8796 31.9571 16.8796C30.9161 16.8796 30.3955 16.0616 30.3955 15.095C30.3955 13.236 31.2878 12.2693 32.4032 12.2693C33.1468 12.2693 33.8161 12.7155 33.8161 12.7155L34.0391 11.0796C34.0391 11.0796 33.1468 10.7078 32.2545 10.7078C30.4699 10.7078 28.7596 12.2693 28.7596 15.1693C28.7596 17.1027 29.652 18.3668 31.5109 18.3668C32.1802 18.4411 32.9981 18.218 32.9981 18.218Z"
      fill="white" />
    <path
      d="M11.6577 12.1201C10.6167 12.1201 9.79872 12.4176 9.79872 12.4176L9.57564 13.756C9.57564 13.756 10.2449 13.4586 11.2859 13.4586C11.8064 13.4586 12.2526 13.5329 12.2526 13.9791C12.2526 14.2765 12.1782 14.3509 12.1782 14.3509H11.509C10.1705 14.3509 8.75769 14.8714 8.75769 16.656C8.75769 18.0688 9.65 18.3663 10.2449 18.3663C11.2859 18.3663 11.8064 17.697 11.8808 17.697L11.8064 18.2919H13.0705L13.6654 14.0535C13.6654 12.1945 12.1782 12.1201 11.6577 12.1201ZM11.9551 15.5406C11.9551 15.7637 11.8064 17.0278 10.9141 17.0278C10.4679 17.0278 10.3192 16.656 10.3192 16.4329C10.3192 16.0611 10.5423 15.5406 11.732 15.5406C11.8808 15.5406 11.9551 15.5406 11.9551 15.5406Z"
      fill="white" />
    <path
      d="M15.1528 18.3664C15.5246 18.3664 17.4579 18.4408 17.4579 16.3587C17.4579 14.4254 15.599 14.7972 15.599 14.0536C15.599 13.6818 15.8964 13.5331 16.4169 13.5331C16.64 13.5331 17.4579 13.6074 17.4579 13.6074L17.681 12.1946C17.681 12.1946 17.1605 12.0459 16.1938 12.0459C15.0784 12.0459 13.8887 12.4921 13.8887 14.0536C13.8887 15.8382 15.822 15.6895 15.822 16.3587C15.822 16.8049 15.3015 16.8792 14.9297 16.8792C14.2605 16.8792 13.5169 16.6562 13.5169 16.6562L13.2938 18.069C13.4425 18.2177 13.8887 18.3664 15.1528 18.3664Z"
      fill="white" />
    <path
      d="M45.7855 10.9307L45.4881 13.0127C45.4881 13.0127 44.8932 12.2691 44.0009 12.2691C42.5881 12.2691 41.3983 13.9794 41.3983 15.9871C41.3983 17.2512 41.9932 18.5153 43.3317 18.5153C44.224 18.5153 44.8188 17.9204 44.8188 17.9204L44.7445 18.4409H46.306L47.4214 11.0794L45.7855 10.9307ZM45.0419 14.946C45.0419 15.764 44.6701 16.8794 43.7778 16.8794C43.2573 16.8794 42.9599 16.4332 42.9599 15.6153C42.9599 14.3512 43.4804 13.6076 44.224 13.6076C44.7445 13.6819 45.0419 14.0537 45.0419 14.946Z"
      fill="white" />
    <path
      d="M3.25366 18.2922L4.14597 12.7896L4.29468 18.2922H5.33571L7.3434 12.7896L6.52545 18.2922H8.16135L9.42545 10.9307H6.89725L5.33571 15.4666L5.26135 10.9307H3.03058L1.76648 18.2922H3.25366Z"
      fill="white" />
    <path
      d="M27.05 18.2925C27.4961 15.7643 27.5705 13.6823 28.6859 14.0541C28.8346 13.0874 29.0577 12.6412 29.2064 12.2694H28.909C28.2397 12.2694 27.6448 13.1617 27.6448 13.1617L27.7936 12.3438H26.3064L25.3397 18.2925H27.05Z"
      fill="white" />
    <path
      d="M36.5688 12.1201C35.5278 12.1201 34.7098 12.4176 34.7098 12.4176L34.4868 13.756C34.4868 13.756 35.156 13.4586 36.197 13.4586C36.7175 13.4586 37.1637 13.5329 37.1637 13.9791C37.1637 14.2765 37.0893 14.3509 37.0893 14.3509H36.4201C35.0816 14.3509 33.6688 14.8714 33.6688 16.656C33.6688 18.0688 34.5611 18.3663 35.156 18.3663C36.197 18.3663 36.7175 17.697 36.7919 17.697L36.7175 18.2919H38.1304L38.7252 14.0535C38.7252 12.1945 37.0893 12.1201 36.5688 12.1201ZM36.9406 15.5406C36.9406 15.7637 36.7919 17.0278 35.8996 17.0278C35.4534 17.0278 35.3047 16.656 35.3047 16.4329C35.3047 16.0611 35.5278 15.5406 36.7175 15.5406C36.8663 15.5406 36.8663 15.5406 36.9406 15.5406Z"
      fill="white" />
    <path
      d="M39.9155 18.2925C40.3616 15.7643 40.436 13.6823 41.5514 14.0541C41.7001 13.0874 41.9231 12.6412 42.0719 12.2694H41.7744C41.1052 12.2694 40.5103 13.1617 40.5103 13.1617L40.659 12.3438H39.1719L38.2052 18.2925H39.9155Z"
      fill="white" />
  </symbol>
  <symbol id="icon-basket" viewBox="0 0 21 27" fill="none" xmlns="http://www.w3.org/2000/svg">
    <path fill-rule="evenodd" clip-rule="evenodd"
      d="M1.16673 9.9C1.14893 8.59317 2.19325 7.51901 3.50006 7.5H17.5001C18.8069 7.51901 19.8512 8.59317 19.8334 9.9V20.7C19.8697 23.314 17.7807 25.4627 15.1667 25.5H5.83339C3.21945 25.4627 1.13039 23.314 1.16673 20.7V9.9Z"
      stroke="white" stroke-width="1.5" stroke-linecap="round" stroke-linejoin="round" />
    <path d="M15.1667 11.1V6.3C15.203 3.68604 13.114 1.53729 10.5 1.5C7.88608 1.53729 5.79701 3.68604 5.83335 6.3V11.1"
      stroke="white" stroke-width="1.5" stroke-linecap="round" stroke-linejoin="round" />
  </symbol>
</svg>